<?xml version="1.0" encoding="utf-8"?>
<!-- Generator: Adobe Illustrator 28.1.0, SVG Export Plug-In . SVG Version: 6.00 Build 0)  -->
<svg version="1.1" id="Base" xmlns="http://www.w3.org/2000/svg" xmlns:xlink="http://www.w3.org/1999/xlink" x="0px" y="0px"
	 viewBox="0 0 720 980" style="enable-background:new 0 0 720 980;" xml:space="preserve">
<style type="text/css">
	.st0{fill:#FFFFFF;}
	.st1{fill:none;stroke:#FFFFFF;stroke-width:4;stroke-miterlimit:10;}
</style>
<g>
	<rect x="0" y="0" width="720" height="980"/>
</g>
<g>
	<path class="st0" d="M360,290c110.46,0,200,89.54,200,200s-89.54,200-200,200s-200-89.54-200-200S249.54,290,360,290 M360,288
		c-27.27,0-53.72,5.34-78.63,15.88c-24.05,10.17-45.66,24.74-64.21,43.29c-18.55,18.55-33.12,40.15-43.29,64.21
		C163.34,436.28,158,462.73,158,490c0,27.27,5.34,53.72,15.88,78.63c10.17,24.05,24.74,45.66,43.29,64.21
		c18.55,18.55,40.15,33.12,64.21,43.29C306.28,686.66,332.73,692,360,692s53.72-5.34,78.63-15.88
		c24.05-10.17,45.66-24.74,64.21-43.29c18.55-18.55,33.12-40.15,43.29-64.21C556.66,543.72,562,517.27,562,490
		c0-27.27-5.34-53.72-15.88-78.63c-10.17-24.05-24.74-45.66-43.29-64.21c-18.55-18.55-40.15-33.12-64.21-43.29
		C413.72,293.34,387.27,288,360,288L360,288z"/>
</g>
<g>
	<path class="st0" d="M360,444c25.36,0,46,20.64,46,46c0,25.36-20.64,46-46,46s-46-20.64-46-46C314,464.64,334.64,444,360,444
		 M360,440c-27.61,0-50,22.39-50,50c0,27.61,22.39,50,50,50s50-22.39,50-50C410,462.39,387.61,440,360,440L360,440z"/>
</g>
<g>
	<path class="st0" d="M360,419c39.21,0,71,31.79,71,71s-31.79,71-71,71s-71-31.79-71-71S320.79,419,360,419 M360,415
		c-41.36,0-75,33.64-75,75s33.64,75,75,75s75-33.64,75-75S401.36,415,360,415L360,415z"/>
</g>
<line class="st1" x1="360" y1="540.23" x2="360" y2="980"/>
<line class="st1" x1="360" y1="0" x2="360" y2="440.23"/>
<line class="st1" x1="403.11" y1="465.36" x2="720" y2="282"/>
<line class="st1" x1="-1" y1="699" x2="316.53" y2="515.43"/>
<line class="st1" x1="402.98" y1="515.33" x2="720" y2="699"/>
<line class="st1" x1="-1" y1="282" x2="316.38" y2="465.3"/>
</svg>
